<svg xmlns="http://www.w3.org/2000/svg" viewBox="0 0 160 100" fill="none">
  <path d="M6 50 C 40 10, 60 90, 92 50 C 110 26, 130 74, 154 50"
        stroke="#C9A876" stroke-width="2.2" stroke-linecap="round" opacity="0.85"/>
  <g fill="#E8B4BE" opacity="0.75">
    <path d="M40 30 C 30 22, 30 40, 44 40 C 48 34, 46 30, 40 30 Z"/>
    <path d="M118 66 C 108 58, 108 76, 122 76 C 126 70, 124 66, 118 66 Z"/>
  </g>
  <g fill="#9CC6DC" opacity="0.7">
    <path d="M74 66 C 64 60, 66 78, 80 74 C 82 70, 80 66, 74 66 Z"/>
  </g>
  <g fill="#C9A876" opacity="0.9">
    <circle cx="6" cy="50" r="3"/>
    <circle cx="154" cy="50" r="3"/>
  </g>
</svg>
